<?xml version="1.0" encoding="UTF-8"?>
<svg xmlns="http://www.w3.org/2000/svg" xmlns:xlink="http://www.w3.org/1999/xlink" width="400px" height="253px" viewBox="0 0 400 253" version="1.1">
<g id="surface1">
<path style=" stroke:none;fill-rule:nonzero;fill:rgb(18.431373%,18.039216%,25.490196%);fill-opacity:1;" d="M 151.523438 39.832031 C 150.960938 40.5625 149.988281 40.84375 149.121094 40.53125 C 148.992188 40.496094 148.867188 40.449219 148.742188 40.394531 C 148.882812 38.90625 148.8125 37.410156 148.539062 35.941406 C 148.429688 37.203125 148.121094 38.4375 147.625 39.605469 C 147.21875 39.195312 146.886719 38.722656 146.644531 38.203125 C 146.191406 37.128906 145.890625 35.992188 145.75 34.832031 C 145.082031 30.882812 144.417969 26.773438 145.511719 22.914062 C 147.117188 17.277344 152.175781 13.222656 154.285156 7.75 L 155.328125 6.816406 C 157.109375 9.851562 157.1875 13.621094 156.460938 17.0625 C 155.738281 20.511719 154.285156 23.746094 153.132812 27.070312 C 151.980469 30.394531 151.121094 33.933594 151.652344 37.410156 C 151.777344 38.230469 151.964844 39.132812 151.523438 39.832031 Z M 151.523438 39.832031 "/>
<path style=" stroke:none;fill-rule:nonzero;fill:rgb(100%,71.372549%,71.372549%);fill-opacity:1;" d="M 128.394531 87.546875 L 121.613281 118.574219 L 151.234375 128.226562 L 146.878906 87.546875 Z M 128.394531 87.546875 "/>
<path style=" stroke:none;fill-rule:nonzero;fill:rgb(90.196078%,90.196078%,90.196078%);fill-opacity:1;" d="M 337.4375 252.21875 L 350.859375 252.21875 L 350.859375 190.65625 C 350.824219 157.578125 324.023438 130.769531 290.953125 130.734375 L 166.199219 130.734375 C 133.128906 130.769531 106.328125 157.578125 106.292969 190.65625 L 106.292969 252.21875 L 119.714844 252.21875 L 119.714844 210.164062 C 119.753906 176.773438 146.800781 149.71875 180.179688 149.679688 L 276.972656 149.679688 C 310.351562 149.71875 337.398438 176.773438 337.4375 210.164062 Z M 337.4375 252.21875 "/>
<path style=" stroke:none;fill-rule:nonzero;fill:rgb(94.901961%,94.901961%,94.901961%);fill-opacity:1;" d="M 174.3125 220.011719 L 160.007812 215.679688 C 159.078125 211.855469 158.609375 207.933594 158.609375 204 C 158.625 202.183594 159.683594 200.539062 161.332031 199.78125 C 162.980469 199.023438 164.917969 199.285156 166.304688 200.457031 C 173.980469 207.039062 185.21875 210.554688 192.472656 218.054688 C 198.554688 224.441406 201.398438 233.25 200.210938 241.988281 L 203.339844 252.121094 C 189.15625 251.09375 176.132812 243.910156 167.699219 232.457031 C 165.394531 229.257812 163.5 225.78125 162.058594 222.109375 C 168.128906 221.421875 174.3125 220.011719 174.3125 220.011719 Z M 174.3125 220.011719 "/>
<path style=" stroke:none;fill-rule:nonzero;fill:rgb(94.901961%,94.901961%,94.901961%);fill-opacity:1;" d="M 211.601562 236.605469 L 218.898438 234.394531 C 218.90625 234.355469 218.917969 234.316406 218.925781 234.277344 C 219.339844 232.453125 218.625 230.558594 217.113281 229.457031 C 215.601562 228.355469 213.582031 228.257812 211.972656 229.210938 C 208.660156 231.179688 204.980469 232.875 202.339844 235.605469 C 199.238281 238.863281 197.785156 243.355469 198.394531 247.8125 L 196.796875 252.980469 C 204.03125 252.457031 210.671875 248.792969 214.976562 242.953125 C 216.152344 241.320312 217.117188 239.546875 217.851562 237.675781 C 214.753906 237.324219 211.601562 236.605469 211.601562 236.605469 Z M 211.601562 236.605469 "/>
<path style=" stroke:none;fill-rule:nonzero;fill:rgb(24.705882%,23.921569%,33.72549%);fill-opacity:1;" d="M 270.667969 85.335938 L 242.253906 85.335938 C 241.414062 85.335938 240.738281 86.015625 240.738281 86.851562 L 240.738281 131.753906 L 272.183594 131.753906 L 272.183594 86.851562 C 272.1875 86.449219 272.027344 86.0625 271.742188 85.777344 C 271.457031 85.496094 271.070312 85.335938 270.667969 85.335938 Z M 256.554688 110.847656 C 254.707031 110.839844 253.207031 109.339844 253.199219 107.492188 L 253.199219 102.3125 C 253.203125 100.460938 254.703125 98.960938 256.554688 98.960938 C 258.40625 98.960938 259.910156 100.460938 259.910156 102.3125 L 259.910156 107.492188 C 259.902344 109.339844 258.40625 110.839844 256.554688 110.847656 Z M 256.554688 110.847656 "/>
<path style=" stroke:none;fill-rule:nonzero;fill:rgb(24.705882%,23.921569%,33.72549%);fill-opacity:1;" d="M 317.722656 15.261719 L 196.257812 15.261719 C 194.082031 15.265625 192.324219 17.027344 192.320312 19.199219 L 192.320312 101.1875 C 192.320312 103.363281 194.082031 105.125 196.257812 105.125 L 317.722656 105.125 C 319.894531 105.125 321.65625 103.363281 321.65625 101.1875 L 321.65625 19.199219 C 321.652344 17.027344 319.894531 15.265625 317.722656 15.261719 Z M 317.722656 15.261719 "/>
<path style=" stroke:none;fill-rule:nonzero;fill:rgb(100%,100%,100%);fill-opacity:1;" d="M 316.707031 18.105469 L 197.269531 18.105469 C 196.109375 18.109375 195.164062 19.050781 195.164062 20.214844 L 195.164062 100.171875 C 195.167969 101.335938 196.109375 102.277344 197.269531 102.277344 L 316.707031 102.277344 C 317.867188 102.277344 318.808594 101.335938 318.8125 100.171875 L 318.8125 20.214844 C 318.8125 19.050781 317.871094 18.109375 316.707031 18.105469 Z M 316.707031 18.105469 "/>
<path style=" stroke:none;fill-rule:nonzero;fill:rgb(24.705882%,23.921569%,33.72549%);fill-opacity:1;" d="M 240.640625 130.316406 L 240.640625 134.648438 C 240.640625 135.117188 241.019531 135.496094 241.488281 135.496094 L 271.4375 135.496094 C 271.902344 135.496094 272.28125 135.117188 272.28125 134.648438 L 272.28125 130.316406 Z M 240.640625 130.316406 "/>
<path style=" stroke:none;fill-rule:nonzero;fill:rgb(24.705882%,23.921569%,33.72549%);fill-opacity:1;" d="M 293.441406 137.003906 L 222.386719 137.003906 C 221.992188 137.003906 221.617188 136.828125 221.371094 136.519531 C 221.121094 136.214844 221.023438 135.8125 221.105469 135.425781 L 222.207031 130.1875 C 222.339844 129.585938 222.871094 129.152344 223.488281 129.152344 L 292.339844 129.152344 C 292.957031 129.152344 293.492188 129.585938 293.621094 130.1875 L 294.722656 135.425781 C 294.804688 135.8125 294.707031 136.214844 294.457031 136.519531 C 294.210938 136.828125 293.835938 137.003906 293.441406 137.003906 Z M 293.441406 137.003906 "/>
<path style=" stroke:none;fill-rule:nonzero;fill:rgb(90.196078%,90.196078%,90.196078%);fill-opacity:1;" d="M 224.265625 130.09375 L 225.910156 130.09375 C 226.058594 130.09375 226.179688 130.214844 226.179688 130.367188 L 226.179688 131.136719 C 226.179688 131.285156 226.058594 131.40625 225.910156 131.40625 L 224.265625 131.40625 C 224.113281 131.40625 223.992188 131.285156 223.992188 131.136719 L 223.992188 130.367188 C 223.992188 130.214844 224.113281 130.09375 224.265625 130.09375 Z M 224.265625 130.09375 "/>
<path style=" stroke:none;fill-rule:nonzero;fill:rgb(90.196078%,90.196078%,90.196078%);fill-opacity:1;" d="M 228.640625 130.09375 L 230.285156 130.09375 C 230.4375 130.09375 230.558594 130.214844 230.558594 130.367188 L 230.558594 131.136719 C 230.558594 131.285156 230.4375 131.40625 230.285156 131.40625 L 228.640625 131.40625 C 228.492188 131.40625 228.371094 131.285156 228.371094 131.136719 L 228.371094 130.367188 C 228.371094 130.214844 228.492188 130.09375 228.640625 130.09375 Z M 228.640625 130.09375 "/>
<path style=" stroke:none;fill-rule:nonzero;fill:rgb(90.196078%,90.196078%,90.196078%);fill-opacity:1;" d="M 233.019531 130.09375 L 234.664062 130.09375 C 234.8125 130.09375 234.933594 130.214844 234.933594 130.367188 L 234.933594 131.136719 C 234.933594 131.285156 234.8125 131.40625 234.664062 131.40625 L 233.019531 131.40625 C 232.867188 131.40625 232.746094 131.285156 232.746094 131.136719 L 232.746094 130.367188 C 232.746094 130.214844 232.867188 130.09375 233.019531 130.09375 Z M 233.019531 130.09375 "/>
<path style=" stroke:none;fill-rule:nonzero;fill:rgb(90.196078%,90.196078%,90.196078%);fill-opacity:1;" d="M 237.394531 130.09375 L 239.039062 130.09375 C 239.191406 130.09375 239.3125 130.214844 239.3125 130.367188 L 239.3125 131.136719 C 239.3125 131.285156 239.191406 131.40625 239.039062 131.40625 L 237.394531 131.40625 C 237.246094 131.40625 237.125 131.285156 237.125 131.136719 L 237.125 130.367188 C 237.125 130.214844 237.246094 130.09375 237.394531 130.09375 Z M 237.394531 130.09375 "/>
<path style=" stroke:none;fill-rule:nonzero;fill:rgb(90.196078%,90.196078%,90.196078%);fill-opacity:1;" d="M 241.773438 130.09375 L 243.417969 130.09375 C 243.566406 130.09375 243.6875 130.214844 243.6875 130.367188 L 243.6875 131.136719 C 243.6875 131.285156 243.566406 131.40625 243.417969 131.40625 L 241.773438 131.40625 C 241.621094 131.40625 241.5 131.285156 241.5 131.136719 L 241.5 130.367188 C 241.5 130.214844 241.621094 130.09375 241.773438 130.09375 Z M 241.773438 130.09375 "/>
<path style=" stroke:none;fill-rule:nonzero;fill:rgb(90.196078%,90.196078%,90.196078%);fill-opacity:1;" d="M 246.148438 130.09375 L 247.792969 130.09375 C 247.945312 130.09375 248.066406 130.214844 248.066406 130.367188 L 248.066406 131.136719 C 248.066406 131.285156 247.945312 131.40625 247.792969 131.40625 L 246.148438 131.40625 C 246 131.40625 245.878906 131.285156 245.878906 131.136719 L 245.878906 130.367188 C 245.878906 130.214844 246 130.09375 246.148438 130.09375 Z M 246.148438 130.09375 "/>
<path style=" stroke:none;fill-rule:nonzero;fill:rgb(90.196078%,90.196078%,90.196078%);fill-opacity:1;" d="M 250.527344 130.09375 L 252.171875 130.09375 C 252.320312 130.09375 252.441406 130.214844 252.441406 130.367188 L 252.441406 131.136719 C 252.441406 131.285156 252.320312 131.40625 252.171875 131.40625 L 250.527344 131.40625 C 250.375 131.40625 250.253906 131.285156 250.253906 131.136719 L 250.253906 130.367188 C 250.253906 130.214844 250.375 130.09375 250.527344 130.09375 Z M 250.527344 130.09375 "/>
<path style=" stroke:none;fill-rule:nonzero;fill:rgb(90.196078%,90.196078%,90.196078%);fill-opacity:1;" d="M 254.902344 130.09375 L 256.546875 130.09375 C 256.699219 130.09375 256.820312 130.214844 256.820312 130.367188 L 256.820312 131.136719 C 256.820312 131.285156 256.699219 131.40625 256.546875 131.40625 L 254.902344 131.40625 C 254.753906 131.40625 254.632812 131.285156 254.632812 131.136719 L 254.632812 130.367188 C 254.632812 130.214844 254.753906 130.09375 254.902344 130.09375 Z M 254.902344 130.09375 "/>
<path style=" stroke:none;fill-rule:nonzero;fill:rgb(90.196078%,90.196078%,90.196078%);fill-opacity:1;" d="M 259.28125 130.09375 L 260.925781 130.09375 C 261.074219 130.09375 261.195312 130.214844 261.195312 130.367188 L 261.195312 131.136719 C 261.195312 131.285156 261.074219 131.40625 260.925781 131.40625 L 259.28125 131.40625 C 259.128906 131.40625 259.007812 131.285156 259.007812 131.136719 L 259.007812 130.367188 C 259.007812 130.214844 259.128906 130.09375 259.28125 130.09375 Z M 259.28125 130.09375 "/>
<path style=" stroke:none;fill-rule:nonzero;fill:rgb(90.196078%,90.196078%,90.196078%);fill-opacity:1;" d="M 263.65625 130.09375 L 265.300781 130.09375 C 265.453125 130.09375 265.574219 130.214844 265.574219 130.367188 L 265.574219 131.136719 C 265.574219 131.285156 265.453125 131.40625 265.300781 131.40625 L 263.65625 131.40625 C 263.507812 131.40625 263.386719 131.285156 263.386719 131.136719 L 263.386719 130.367188 C 263.386719 130.214844 263.507812 130.09375 263.65625 130.09375 Z M 263.65625 130.09375 "/>
<path style=" stroke:none;fill-rule:nonzero;fill:rgb(90.196078%,90.196078%,90.196078%);fill-opacity:1;" d="M 268.035156 130.09375 L 269.679688 130.09375 C 269.828125 130.09375 269.949219 130.214844 269.949219 130.367188 L 269.949219 131.136719 C 269.949219 131.285156 269.828125 131.40625 269.679688 131.40625 L 268.035156 131.40625 C 267.882812 131.40625 267.761719 131.285156 267.761719 131.136719 L 267.761719 130.367188 C 267.761719 130.214844 267.882812 130.09375 268.035156 130.09375 Z M 268.035156 130.09375 "/>
<path style=" stroke:none;fill-rule:nonzero;fill:rgb(90.196078%,90.196078%,90.196078%);fill-opacity:1;" d="M 272.410156 130.09375 L 274.054688 130.09375 C 274.207031 130.09375 274.328125 130.214844 274.328125 130.367188 L 274.328125 131.136719 C 274.328125 131.285156 274.207031 131.40625 274.054688 131.40625 L 272.410156 131.40625 C 272.261719 131.40625 272.140625 131.285156 272.140625 131.136719 L 272.140625 130.367188 C 272.140625 130.214844 272.261719 130.09375 272.410156 130.09375 Z M 272.410156 130.09375 "/>
<path style=" stroke:none;fill-rule:nonzero;fill:rgb(90.196078%,90.196078%,90.196078%);fill-opacity:1;" d="M 276.789062 130.09375 L 278.433594 130.09375 C 278.582031 130.09375 278.703125 130.214844 278.703125 130.367188 L 278.703125 131.136719 C 278.703125 131.285156 278.582031 131.40625 278.433594 131.40625 L 276.789062 131.40625 C 276.636719 131.40625 276.515625 131.285156 276.515625 131.136719 L 276.515625 130.367188 C 276.515625 130.214844 276.636719 130.09375 276.789062 130.09375 Z M 276.789062 130.09375 "/>
<path style=" stroke:none;fill-rule:nonzero;fill:rgb(90.196078%,90.196078%,90.196078%);fill-opacity:1;" d="M 281.164062 130.09375 L 282.808594 130.09375 C 282.960938 130.09375 283.082031 130.214844 283.082031 130.367188 L 283.082031 131.136719 C 283.082031 131.285156 282.960938 131.40625 282.808594 131.40625 L 281.164062 131.40625 C 281.015625 131.40625 280.894531 131.285156 280.894531 131.136719 L 280.894531 130.367188 C 280.894531 130.214844 281.015625 130.09375 281.164062 130.09375 Z M 281.164062 130.09375 "/>
<path style=" stroke:none;fill-rule:nonzero;fill:rgb(90.196078%,90.196078%,90.196078%);fill-opacity:1;" d="M 285.542969 130.09375 L 287.1875 130.09375 C 287.335938 130.09375 287.460938 130.214844 287.460938 130.367188 L 287.460938 131.136719 C 287.460938 131.285156 287.335938 131.40625 287.1875 131.40625 L 285.542969 131.40625 C 285.390625 131.40625 285.269531 131.285156 285.269531 131.136719 L 285.269531 130.367188 C 285.269531 130.214844 285.390625 130.09375 285.542969 130.09375 Z M 285.542969 130.09375 "/>
<path style=" stroke:none;fill-rule:nonzero;fill:rgb(90.196078%,90.196078%,90.196078%);fill-opacity:1;" d="M 289.917969 130.09375 L 291.5625 130.09375 C 291.714844 130.09375 291.835938 130.214844 291.835938 130.367188 L 291.835938 131.136719 C 291.835938 131.285156 291.714844 131.40625 291.5625 131.40625 L 289.917969 131.40625 C 289.769531 131.40625 289.648438 131.285156 289.648438 131.136719 L 289.648438 130.367188 C 289.648438 130.214844 289.769531 130.09375 289.917969 130.09375 Z M 289.917969 130.09375 "/>
<path style=" stroke:none;fill-rule:nonzero;fill:rgb(90.196078%,90.196078%,90.196078%);fill-opacity:1;" d="M 224.210938 132.285156 L 225.855469 132.285156 C 226.007812 132.285156 226.128906 132.40625 226.128906 132.554688 L 226.128906 133.324219 C 226.128906 133.476562 226.007812 133.597656 225.855469 133.597656 L 224.210938 133.597656 C 224.0625 133.597656 223.941406 133.476562 223.941406 133.324219 L 223.941406 132.554688 C 223.941406 132.40625 224.0625 132.285156 224.210938 132.285156 Z M 224.210938 132.285156 "/>
<path style=" stroke:none;fill-rule:nonzero;fill:rgb(90.196078%,90.196078%,90.196078%);fill-opacity:1;" d="M 228.589844 132.285156 L 230.234375 132.285156 C 230.382812 132.285156 230.507812 132.40625 230.507812 132.554688 L 230.507812 133.324219 C 230.507812 133.476562 230.382812 133.597656 230.234375 133.597656 L 228.589844 133.597656 C 228.4375 133.597656 228.316406 133.476562 228.316406 133.324219 L 228.316406 132.554688 C 228.316406 132.40625 228.4375 132.285156 228.589844 132.285156 Z M 228.589844 132.285156 "/>
<path style=" stroke:none;fill-rule:nonzero;fill:rgb(90.196078%,90.196078%,90.196078%);fill-opacity:1;" d="M 232.964844 132.285156 L 234.609375 132.285156 C 234.761719 132.285156 234.882812 132.40625 234.882812 132.554688 L 234.882812 133.324219 C 234.882812 133.476562 234.761719 133.597656 234.609375 133.597656 L 232.964844 133.597656 C 232.816406 133.597656 232.695312 133.476562 232.695312 133.324219 L 232.695312 132.554688 C 232.695312 132.40625 232.816406 132.285156 232.964844 132.285156 Z M 232.964844 132.285156 "/>
<path style=" stroke:none;fill-rule:nonzero;fill:rgb(90.196078%,90.196078%,90.196078%);fill-opacity:1;" d="M 237.34375 132.285156 L 238.988281 132.285156 C 239.136719 132.285156 239.261719 132.40625 239.261719 132.554688 L 239.261719 133.324219 C 239.261719 133.476562 239.136719 133.597656 238.988281 133.597656 L 237.34375 133.597656 C 237.191406 133.597656 237.070312 133.476562 237.070312 133.324219 L 237.070312 132.554688 C 237.070312 132.40625 237.191406 132.285156 237.34375 132.285156 Z M 237.34375 132.285156 "/>
<path style=" stroke:none;fill-rule:nonzero;fill:rgb(90.196078%,90.196078%,90.196078%);fill-opacity:1;" d="M 241.71875 132.285156 L 243.363281 132.285156 C 243.515625 132.285156 243.636719 132.40625 243.636719 132.554688 L 243.636719 133.324219 C 243.636719 133.476562 243.515625 133.597656 243.363281 133.597656 L 241.71875 133.597656 C 241.570312 133.597656 241.449219 133.476562 241.449219 133.324219 L 241.449219 132.554688 C 241.449219 132.40625 241.570312 132.285156 241.71875 132.285156 Z M 241.71875 132.285156 "/>
<path style=" stroke:none;fill-rule:nonzero;fill:rgb(90.196078%,90.196078%,90.196078%);fill-opacity:1;" d="M 246.097656 132.285156 L 247.742188 132.285156 C 247.890625 132.285156 248.015625 132.40625 248.015625 132.554688 L 248.015625 133.324219 C 248.015625 133.476562 247.890625 133.597656 247.742188 133.597656 L 246.097656 133.597656 C 245.949219 133.597656 245.824219 133.476562 245.824219 133.324219 L 245.824219 132.554688 C 245.824219 132.40625 245.949219 132.285156 246.097656 132.285156 Z M 246.097656 132.285156 "/>
<path style=" stroke:none;fill-rule:nonzero;fill:rgb(90.196078%,90.196078%,90.196078%);fill-opacity:1;" d="M 250.472656 132.285156 L 252.121094 132.285156 C 252.269531 132.285156 252.390625 132.40625 252.390625 132.554688 L 252.390625 133.324219 C 252.390625 133.476562 252.269531 133.597656 252.121094 133.597656 L 250.472656 133.597656 C 250.324219 133.597656 250.203125 133.476562 250.203125 133.324219 L 250.203125 132.554688 C 250.203125 132.40625 250.324219 132.285156 250.472656 132.285156 Z M 250.472656 132.285156 "/>
<path style=" stroke:none;fill-rule:nonzero;fill:rgb(90.196078%,90.196078%,90.196078%);fill-opacity:1;" d="M 254.851562 132.285156 L 256.496094 132.285156 C 256.644531 132.285156 256.769531 132.40625 256.769531 132.554688 L 256.769531 133.324219 C 256.769531 133.476562 256.644531 133.597656 256.496094 133.597656 L 254.851562 133.597656 C 254.703125 133.597656 254.578125 133.476562 254.578125 133.324219 L 254.578125 132.554688 C 254.578125 132.40625 254.703125 132.285156 254.851562 132.285156 Z M 254.851562 132.285156 "/>
<path style=" stroke:none;fill-rule:nonzero;fill:rgb(90.196078%,90.196078%,90.196078%);fill-opacity:1;" d="M 259.230469 132.285156 L 260.875 132.285156 C 261.023438 132.285156 261.144531 132.40625 261.144531 132.554688 L 261.144531 133.324219 C 261.144531 133.476562 261.023438 133.597656 260.875 133.597656 L 259.230469 133.597656 C 259.078125 133.597656 258.957031 133.476562 258.957031 133.324219 L 258.957031 132.554688 C 258.957031 132.40625 259.078125 132.285156 259.230469 132.285156 Z M 259.230469 132.285156 "/>
<path style=" stroke:none;fill-rule:nonzero;fill:rgb(90.196078%,90.196078%,90.196078%);fill-opacity:1;" d="M 263.605469 132.285156 L 265.25 132.285156 C 265.402344 132.285156 265.523438 132.40625 265.523438 132.554688 L 265.523438 133.324219 C 265.523438 133.476562 265.402344 133.597656 265.25 133.597656 L 263.605469 133.597656 C 263.457031 133.597656 263.332031 133.476562 263.332031 133.324219 L 263.332031 132.554688 C 263.332031 132.40625 263.457031 132.285156 263.605469 132.285156 Z M 263.605469 132.285156 "/>
<path style=" stroke:none;fill-rule:nonzero;fill:rgb(90.196078%,90.196078%,90.196078%);fill-opacity:1;" d="M 267.984375 132.285156 L 269.628906 132.285156 C 269.777344 132.285156 269.898438 132.40625 269.898438 132.554688 L 269.898438 133.324219 C 269.898438 133.476562 269.777344 133.597656 269.628906 133.597656 L 267.984375 133.597656 C 267.832031 133.597656 267.710938 133.476562 267.710938 133.324219 L 267.710938 132.554688 C 267.710938 132.40625 267.832031 132.285156 267.984375 132.285156 Z M 267.984375 132.285156 "/>
<path style=" stroke:none;fill-rule:nonzero;fill:rgb(90.196078%,90.196078%,90.196078%);fill-opacity:1;" d="M 272.359375 132.285156 L 274.003906 132.285156 C 274.15625 132.285156 274.277344 132.40625 274.277344 132.554688 L 274.277344 133.324219 C 274.277344 133.476562 274.15625 133.597656 274.003906 133.597656 L 272.359375 133.597656 C 272.210938 133.597656 272.085938 133.476562 272.085938 133.324219 L 272.085938 132.554688 C 272.085938 132.40625 272.210938 132.285156 272.359375 132.285156 Z M 272.359375 132.285156 "/>
<path style=" stroke:none;fill-rule:nonzero;fill:rgb(90.196078%,90.196078%,90.196078%);fill-opacity:1;" d="M 276.738281 132.285156 L 278.382812 132.285156 C 278.53125 132.285156 278.652344 132.40625 278.652344 132.554688 L 278.652344 133.324219 C 278.652344 133.476562 278.53125 133.597656 278.382812 133.597656 L 276.738281 133.597656 C 276.585938 133.597656 276.464844 133.476562 276.464844 133.324219 L 276.464844 132.554688 C 276.464844 132.40625 276.585938 132.285156 276.738281 132.285156 Z M 276.738281 132.285156 "/>
<path style=" stroke:none;fill-rule:nonzero;fill:rgb(90.196078%,90.196078%,90.196078%);fill-opacity:1;" d="M 281.113281 132.285156 L 282.757812 132.285156 C 282.910156 132.285156 283.03125 132.40625 283.03125 132.554688 L 283.03125 133.324219 C 283.03125 133.476562 282.910156 133.597656 282.757812 133.597656 L 281.113281 133.597656 C 280.964844 133.597656 280.84375 133.476562 280.84375 133.324219 L 280.84375 132.554688 C 280.84375 132.40625 280.964844 132.285156 281.113281 132.285156 Z M 281.113281 132.285156 "/>
<path style=" stroke:none;fill-rule:nonzero;fill:rgb(90.196078%,90.196078%,90.196078%);fill-opacity:1;" d="M 285.492188 132.285156 L 287.136719 132.285156 C 287.285156 132.285156 287.40625 132.40625 287.40625 132.554688 L 287.40625 133.324219 C 287.40625 133.476562 287.285156 133.597656 287.136719 133.597656 L 285.492188 133.597656 C 285.339844 133.597656 285.21875 133.476562 285.21875 133.324219 L 285.21875 132.554688 C 285.21875 132.40625 285.339844 132.285156 285.492188 132.285156 Z M 285.492188 132.285156 "/>
<path style=" stroke:none;fill-rule:nonzero;fill:rgb(90.196078%,90.196078%,90.196078%);fill-opacity:1;" d="M 289.867188 132.285156 L 291.511719 132.285156 C 291.664062 132.285156 291.785156 132.40625 291.785156 132.554688 L 291.785156 133.324219 C 291.785156 133.476562 291.664062 133.597656 291.511719 133.597656 L 289.867188 133.597656 C 289.71875 133.597656 289.597656 133.476562 289.597656 133.324219 L 289.597656 132.554688 C 289.597656 132.40625 289.71875 132.285156 289.867188 132.285156 Z M 289.867188 132.285156 "/>
<path style=" stroke:none;fill-rule:nonzero;fill:rgb(90.196078%,90.196078%,90.196078%);fill-opacity:1;" d="M 245.222656 134.910156 L 262.1875 134.910156 C 262.335938 134.910156 262.457031 135.03125 262.457031 135.183594 L 262.457031 135.953125 C 262.457031 136.101562 262.335938 136.222656 262.1875 136.222656 L 245.222656 136.222656 C 245.070312 136.222656 244.949219 136.101562 244.949219 135.953125 L 244.949219 135.183594 C 244.949219 135.03125 245.070312 134.910156 245.222656 134.910156 Z M 245.222656 134.910156 "/>
<path style=" stroke:none;fill-rule:nonzero;fill:rgb(94.901961%,94.901961%,94.901961%);fill-opacity:1;" d="M 298.898438 38.175781 L 298.898438 80.261719 C 298.898438 86.132812 294.140625 90.886719 288.273438 90.890625 L 235.617188 90.890625 C 231.378906 90.890625 227.546875 88.375 225.863281 84.484375 C 225.585938 83.859375 225.375 83.203125 225.234375 82.53125 C 226.351562 82.964844 227.542969 83.183594 228.742188 83.183594 L 281.398438 83.183594 C 286.804688 83.175781 291.1875 78.792969 291.195312 73.386719 L 291.195312 31.300781 C 291.195312 30.101562 290.976562 28.910156 290.542969 27.789062 C 291.214844 27.933594 291.867188 28.144531 292.496094 28.417969 C 296.382812 30.105469 298.898438 33.9375 298.898438 38.175781 Z M 298.898438 38.175781 "/>
<path style=" stroke:none;fill-rule:nonzero;fill:rgb(100%,71.372549%,71.372549%);fill-opacity:1;" d="M 102.449219 205.617188 L 97.226562 208.851562 L 81.839844 189.933594 L 89.546875 185.160156 Z M 102.449219 205.617188 "/>
<path style=" stroke:none;fill-rule:nonzero;fill:rgb(18.431373%,18.039216%,25.490196%);fill-opacity:1;" d="M 106.957031 212.375 L 102.757812 214.25 L 100.238281 210.617188 L 100.085938 215.441406 L 88.945312 220.417969 C 87.847656 220.910156 86.558594 220.628906 85.765625 219.726562 C 84.972656 218.824219 84.859375 217.511719 85.480469 216.488281 L 91.636719 206.367188 L 89.847656 202.355469 L 99.457031 198.734375 Z M 106.957031 212.375 "/>
<path style=" stroke:none;fill-rule:nonzero;fill:rgb(18.431373%,18.039216%,25.490196%);fill-opacity:1;" d="M 87.820312 201.976562 L 96.640625 193.425781 C 90.085938 177.25 89.5625 167.222656 80.476562 147.65625 C 102.03125 152.066406 117.445312 151.800781 135.273438 147.847656 C 141.308594 146.527344 156.878906 134.496094 155.597656 128.328125 C 155.539062 128.039062 155.46875 127.753906 155.386719 127.46875 C 153.472656 120.941406 154.820312 110.949219 150.679688 103.707031 C 143.015625 100.816406 131.375 110.574219 122.265625 116.523438 C 117.875 119.390625 121.089844 123.300781 117.808594 124.324219 L 105.238281 128.40625 L 74.386719 123.425781 C 71.378906 122.96875 68.308594 123.734375 65.863281 125.550781 C 63.417969 127.363281 61.800781 130.082031 61.367188 133.097656 C 61.3125 133.433594 61.273438 133.769531 61.25 134.109375 C 62.671875 141.96875 64.152344 149.621094 65.742188 156.886719 C 66.257812 159.230469 65.390625 163.726562 67.324219 163.792969 C 69.257812 163.859375 68.476562 168.511719 69.082031 170.785156 C 72.789062 184.777344 75.132812 191.550781 87.820312 201.976562 Z M 87.820312 201.976562 "/>
<path style=" stroke:none;fill-rule:nonzero;fill:rgb(100%,71.372549%,71.372549%);fill-opacity:1;" d="M 70.933594 239.484375 L 65.496094 236.640625 L 74.101562 213.832031 L 82.132812 218.023438 Z M 70.933594 239.484375 "/>
<path style=" stroke:none;fill-rule:nonzero;fill:rgb(18.431373%,18.039216%,25.490196%);fill-opacity:1;" d="M 70.027344 222.453125 L 78.753906 228.460938 C 89.445312 212.992188 96.390625 192.320312 101.5625 169.191406 C 121.695312 160.40625 139.308594 150.355469 151.585938 136.871094 C 155.777344 132.171875 155.480469 124.992188 150.914062 120.660156 C 150.699219 120.457031 150.476562 120.265625 150.246094 120.078125 C 144.929688 115.84375 133.121094 118.28125 125.570312 114.738281 L 112.085938 133.40625 L 113.636719 137.757812 L 108.945312 140.039062 L 104.984375 141.96875 L 100.453125 144.175781 L 85.589844 151.414062 C 82.867188 152.773438 80.800781 155.167969 79.851562 158.058594 C 78.902344 160.949219 79.144531 164.101562 80.527344 166.8125 C 80.675781 167.113281 80.839844 167.414062 81.015625 167.703125 L 75.496094 195.210938 C 75.496094 195.210938 77.015625 200 74.625 199.550781 C 72.234375 199.101562 73.535156 204.96875 73.535156 204.96875 Z M 70.027344 222.453125 "/>
<path style=" stroke:none;fill-rule:nonzero;fill:rgb(18.431373%,18.039216%,25.490196%);fill-opacity:1;" d="M 67.640625 252.054688 L 63.5625 249.925781 L 64.84375 245.695312 L 60.96875 248.574219 L 50.152344 242.925781 C 49.085938 242.371094 48.507812 241.1875 48.71875 240.003906 C 48.933594 238.824219 49.890625 237.917969 51.082031 237.769531 L 62.835938 236.3125 L 64.867188 232.417969 L 73.671875 237.703125 Z M 67.640625 252.054688 "/>
<path style=" stroke:none;fill-rule:nonzero;fill:rgb(100%,71.372549%,71.372549%);fill-opacity:1;" d="M 186.570312 132.464844 L 180.207031 117.082031 L 175.191406 119.867188 L 178.21875 135.515625 C 177.378906 138.269531 178.769531 141.210938 181.433594 142.304688 C 184.097656 143.394531 187.152344 142.277344 188.488281 139.726562 C 189.820312 137.175781 188.988281 134.027344 186.570312 132.464844 Z M 186.570312 132.464844 "/>
<path style=" stroke:none;fill-rule:nonzero;fill:rgb(100%,71.372549%,71.372549%);fill-opacity:1;" d="M 79.78125 10.816406 L 89.464844 24.355469 L 93.71875 20.507812 L 87.222656 5.949219 C 87.417969 3.078125 85.394531 0.527344 82.554688 0.0664062 C 79.710938 -0.390625 76.988281 1.386719 76.269531 4.175781 C 75.550781 6.964844 77.074219 9.84375 79.78125 10.816406 Z M 79.78125 10.816406 "/>
<path style=" stroke:none;fill-rule:nonzero;fill:rgb(40.392157%,31.372549%,64.313725%);fill-opacity:1;" d="M 123.507812 96.640625 C 117.226562 106.386719 140.238281 127.617188 152.351562 122.652344 C 154.472656 121.785156 161.769531 118.914062 156.78125 114.933594 C 151.792969 110.949219 157.359375 115.40625 157.488281 112.816406 C 157.578125 111.082031 156.238281 107.28125 157.636719 107.445312 C 159.035156 107.605469 159.839844 103.558594 156.792969 102.527344 C 154.628906 101.753906 153.109375 99.800781 152.890625 97.511719 C 152.601562 86.832031 156.214844 75.679688 156.214844 75.679688 L 170.976562 113.425781 C 170.976562 113.425781 170.871094 119.957031 172.75 117.960938 C 174.632812 115.964844 174.496094 122.425781 174.496094 122.425781 C 174.496094 122.425781 177.296875 124.378906 175.6875 125.46875 C 174.078125 126.554688 177.417969 129.898438 177.417969 129.898438 L 185.21875 129.339844 C 185.21875 129.339844 185.097656 123.546875 183.765625 122.261719 C 182.433594 120.980469 183.085938 118.964844 183.085938 118.964844 C 183.085938 118.964844 180.34375 116.410156 181.945312 113.402344 C 183.546875 110.394531 170.273438 56.582031 170.273438 56.582031 C 169.1875 51.304688 165.234375 47.078125 160.042969 45.648438 L 151.617188 43.328125 L 150.121094 37.390625 L 138.261719 37.390625 L 136.195312 41.292969 L 117.253906 39.621094 C 117.253906 39.621094 98.511719 22.5625 99.425781 21.230469 C 100.339844 19.898438 97.433594 16.78125 97.433594 16.78125 C 97.433594 16.78125 94.953125 15.96875 96.355469 15.535156 C 97.753906 15.101562 95.109375 14.097656 95.109375 14.097656 C 95.109375 14.097656 92.65625 13.453125 93.8125 12.605469 C 94.96875 11.757812 89.953125 11.199219 89.953125 11.199219 L 83.449219 16.507812 L 84.765625 18.738281 C 84.765625 18.738281 83.960938 21.777344 85.007812 20.667969 C 86.054688 19.558594 86.25 22.777344 86.25 22.777344 C 86.25 22.777344 86.785156 26.300781 89.953125 27.359375 C 93.125 28.421875 95.527344 38.507812 95.527344 38.507812 L 122.265625 60.796875 C 118.195312 65.472656 119.164062 70.363281 122.769531 75.363281 Z M 123.507812 96.640625 "/>
<path style=" stroke:none;fill-rule:nonzero;fill:rgb(100%,71.372549%,71.372549%);fill-opacity:1;" d="M 156.769531 20.597656 C 156.769531 27.695312 151.015625 33.445312 143.921875 33.445312 C 136.828125 33.445312 131.078125 27.695312 131.078125 20.597656 C 131.078125 13.503906 136.828125 7.75 143.921875 7.75 C 151.015625 7.75 156.769531 13.503906 156.769531 20.597656 Z M 156.769531 20.597656 "/>
<path style=" stroke:none;fill-rule:nonzero;fill:rgb(18.431373%,18.039216%,25.490196%);fill-opacity:1;" d="M 155.136719 16.773438 C 154.808594 16.867188 149.984375 17.496094 147.894531 17.886719 C 145.84375 18.273438 145.488281 15.65625 143.808594 16.148438 C 143.8125 16.136719 143.808594 16.125 143.804688 16.113281 C 143.542969 14.730469 143.101562 13.386719 142.484375 12.121094 C 142.707031 13.332031 142.738281 14.574219 142.578125 15.796875 C 142.578125 15.828125 142.574219 15.859375 142.566406 15.890625 C 142.5625 15.949219 142.550781 15.996094 142.546875 16.054688 C 140.773438 15.273438 139.648438 15.96875 138.421875 16.214844 C 137.050781 16.488281 135.984375 17.089844 136.75 21.789062 C 138.328125 31.449219 146.527344 34.902344 145.109375 41.292969 C 144.828125 42.558594 144.128906 44.140625 143.246094 44.535156 C 142.988281 43.152344 142.542969 41.808594 141.925781 40.539062 C 142.152344 41.753906 142.183594 42.996094 142.023438 44.21875 C 140.65625 42.742188 139.671875 37.582031 135.078125 33.492188 C 133.949219 32.488281 128.285156 26.535156 127.605469 25.132812 C 127.8125 26.253906 127.914062 27.394531 127.90625 28.535156 C 127.90625 29.300781 127.855469 30.0625 127.75 30.820312 C 127.75 30.871094 127.742188 30.917969 127.730469 30.964844 C 127.726562 31.054688 127.710938 31.132812 127.699219 31.21875 C 127.6875 31.3125 127.671875 31.402344 127.652344 31.496094 C 125.796875 31.226562 124.15625 30.90625 123.382812 30.148438 C 119.613281 26.480469 124.210938 19.335938 126.722656 12.871094 C 130.316406 3.617188 140.75 2.382812 141.765625 2.285156 C 146.234375 1.832031 153.78125 2.789062 156.25 7.855469 C 157.976562 11.40625 156.875 16.269531 155.136719 16.773438 Z M 155.136719 16.773438 "/>
<path style=" stroke:none;fill-rule:nonzero;fill:rgb(18.431373%,18.039216%,25.490196%);fill-opacity:1;" d="M 128.050781 18.863281 L 137.355469 4.382812 C 135.125 3.089844 132.585938 2.421875 130.007812 2.457031 C 127.410156 2.511719 124.957031 3.667969 123.261719 5.640625 C 121.363281 8 121.035156 11.339844 121.75 14.289062 C 121.996094 15.304688 126.675781 11.722656 125.5625 13.394531 C 124.648438 14.703125 123.152344 20.207031 122.777344 21.753906 C 122.171875 24.246094 120.511719 26.804688 121.992188 28.898438 C 123.742188 31.375 126.863281 32.609375 129.890625 32.734375 C 132.917969 32.859375 135.898438 32.019531 138.777344 31.066406 Z M 128.050781 18.863281 "/>
<path style=" stroke:none;fill-rule:nonzero;fill:rgb(40.392157%,31.372549%,64.313725%);fill-opacity:1;" d="M 131.628906 18.289062 C 131.347656 18.289062 131.113281 18.085938 131.074219 17.808594 C 131.039062 17.535156 131.207031 17.273438 131.476562 17.199219 C 131.621094 16.957031 131.5625 15.941406 131.511719 15.121094 C 131.332031 12.042969 131.027344 6.890625 136.027344 3.414062 C 136.28125 3.238281 136.628906 3.300781 136.804688 3.554688 C 136.980469 3.804688 136.917969 4.152344 136.664062 4.328125 C 132.179688 7.449219 132.445312 12.027344 132.625 15.054688 C 132.726562 16.789062 132.800781 18.039062 131.75 18.277344 C 131.710938 18.285156 131.667969 18.289062 131.628906 18.289062 Z M 131.628906 18.289062 "/>
<path style=" stroke:none;fill-rule:nonzero;fill:rgb(80%,80%,80%);fill-opacity:1;" d="M 0 251.859375 C 0 252.222656 0.292969 252.519531 0.660156 252.519531 L 399.152344 252.519531 C 399.519531 252.519531 399.816406 252.222656 399.816406 251.859375 C 399.816406 251.492188 399.519531 251.195312 399.152344 251.195312 L 0.664062 251.195312 C 0.296875 251.195312 0 251.488281 0 251.855469 Z M 0 251.859375 "/>
<path style=" stroke:none;fill-rule:nonzero;fill:rgb(40.392157%,31.372549%,64.313725%);fill-opacity:1;" d="M 246.539062 52.855469 L 238.105469 52.855469 C 237.640625 52.855469 237.265625 52.480469 237.265625 52.011719 C 237.265625 51.546875 237.640625 51.171875 238.105469 51.171875 L 246.539062 51.171875 C 247.003906 51.171875 247.378906 51.546875 247.378906 52.011719 C 247.378906 52.480469 247.003906 52.855469 246.539062 52.855469 Z M 246.539062 52.855469 "/>
<path style=" stroke:none;fill-rule:nonzero;fill:rgb(40.392157%,31.372549%,64.313725%);fill-opacity:1;" d="M 261.710938 52.855469 L 253.28125 52.855469 C 252.816406 52.855469 252.4375 52.480469 252.4375 52.011719 C 252.4375 51.546875 252.816406 51.171875 253.28125 51.171875 L 261.710938 51.171875 C 262.175781 51.171875 262.554688 51.546875 262.554688 52.011719 C 262.554688 52.480469 262.175781 52.855469 261.710938 52.855469 Z M 261.710938 52.855469 "/>
<path style=" stroke:none;fill-rule:nonzero;fill:rgb(40.392157%,31.372549%,64.313725%);fill-opacity:1;" d="M 269.296875 59.601562 L 260.867188 59.601562 C 260.402344 59.601562 260.027344 59.226562 260.027344 58.757812 C 260.027344 58.292969 260.402344 57.917969 260.867188 57.917969 L 269.296875 57.917969 C 269.765625 57.917969 270.140625 58.292969 270.140625 58.757812 C 270.140625 59.226562 269.765625 59.601562 269.296875 59.601562 Z M 269.296875 59.601562 "/>
<path style=" stroke:none;fill-rule:nonzero;fill:rgb(40.392157%,31.372549%,64.313725%);fill-opacity:1;" d="M 254.171875 59.601562 L 238.105469 59.601562 C 237.640625 59.601562 237.265625 59.226562 237.265625 58.757812 C 237.265625 58.292969 237.640625 57.917969 238.105469 57.917969 L 254.171875 57.917969 C 254.636719 57.917969 255.015625 58.292969 255.015625 58.757812 C 255.015625 59.226562 254.636719 59.601562 254.171875 59.601562 Z M 254.171875 59.601562 "/>
<path style=" stroke:none;fill-rule:nonzero;fill:rgb(40.392157%,31.372549%,64.313725%);fill-opacity:1;" d="M 284.519531 52.855469 L 268.457031 52.855469 C 267.988281 52.855469 267.613281 52.480469 267.613281 52.011719 C 267.613281 51.546875 267.988281 51.171875 268.457031 51.171875 L 284.519531 51.171875 C 284.984375 51.171875 285.363281 51.546875 285.363281 52.011719 C 285.363281 52.480469 284.984375 52.855469 284.519531 52.855469 Z M 284.519531 52.855469 "/>
<path style=" stroke:none;fill-rule:nonzero;fill:rgb(40.392157%,31.372549%,64.313725%);fill-opacity:1;" d="M 252.308594 40.082031 L 236.246094 40.082031 C 235.945312 40.082031 235.664062 39.921875 235.511719 39.660156 C 235.363281 39.398438 235.363281 39.078125 235.511719 38.816406 C 235.664062 38.554688 235.945312 38.394531 236.246094 38.394531 L 252.308594 38.394531 C 252.773438 38.394531 253.152344 38.773438 253.152344 39.238281 C 253.152344 39.703125 252.773438 40.082031 252.308594 40.082031 Z M 252.308594 40.082031 "/>
<path style=" stroke:none;fill-rule:nonzero;fill:rgb(40.392157%,31.372549%,64.313725%);fill-opacity:1;" d="M 253.628906 45.007812 C 253.308594 45.007812 253.019531 44.804688 252.914062 44.5 C 252.808594 44.191406 252.910156 43.855469 253.164062 43.65625 L 257.277344 40.457031 C 257.613281 40.199219 257.824219 39.8125 257.859375 39.390625 C 257.894531 38.96875 257.75 38.550781 257.460938 38.238281 L 254.007812 34.5 C 253.726562 34.191406 253.746094 33.714844 254.050781 33.433594 C 254.355469 33.148438 254.835938 33.167969 255.117188 33.472656 L 260.246094 39.027344 C 260.390625 39.183594 260.460938 39.390625 260.445312 39.601562 C 260.425781 39.8125 260.320312 40.007812 260.15625 40.136719 L 254.09375 44.847656 C 253.960938 44.953125 253.796875 45.007812 253.628906 45.007812 Z M 253.628906 45.007812 "/>
<path style=" stroke:none;fill-rule:nonzero;fill:rgb(40.392157%,31.372549%,64.313725%);fill-opacity:1;" d="M 235.433594 45.007812 C 235.753906 45.007812 236.042969 44.804688 236.148438 44.5 C 236.25 44.191406 236.152344 43.855469 235.894531 43.65625 L 231.78125 40.457031 C 231.449219 40.199219 231.238281 39.8125 231.203125 39.390625 C 231.167969 38.96875 231.3125 38.550781 231.601562 38.238281 L 235.054688 34.5 C 235.335938 34.191406 235.316406 33.714844 235.011719 33.433594 C 234.707031 33.148438 234.226562 33.167969 233.945312 33.472656 L 228.816406 39.027344 C 228.671875 39.183594 228.601562 39.390625 228.617188 39.601562 C 228.636719 39.8125 228.742188 40.007812 228.90625 40.136719 L 234.96875 44.847656 C 235.101562 44.953125 235.265625 45.007812 235.433594 45.007812 Z M 235.433594 45.007812 "/>
<path style=" stroke:none;fill-rule:nonzero;fill:rgb(40.392157%,31.372549%,64.313725%);fill-opacity:1;" d="M 260.613281 74.0625 L 244.550781 74.0625 C 244.082031 74.0625 243.707031 73.6875 243.707031 73.222656 C 243.707031 72.753906 244.082031 72.378906 244.550781 72.378906 L 260.613281 72.378906 C 261.078125 72.378906 261.457031 72.753906 261.457031 73.222656 C 261.457031 73.6875 261.078125 74.0625 260.613281 74.0625 Z M 260.613281 74.0625 "/>
<path style=" stroke:none;fill-rule:nonzero;fill:rgb(40.392157%,31.372549%,64.313725%);fill-opacity:1;" d="M 263.445312 78.234375 C 263.121094 78.234375 262.835938 78.03125 262.730469 77.726562 C 262.625 77.421875 262.726562 77.082031 262.980469 76.882812 L 267.09375 73.6875 C 267.425781 73.425781 267.636719 73.039062 267.671875 72.617188 C 267.707031 72.195312 267.5625 71.777344 267.277344 71.464844 L 263.824219 67.726562 C 263.539062 67.421875 263.558594 66.941406 263.863281 66.660156 C 264.171875 66.375 264.648438 66.394531 264.929688 66.703125 L 270.058594 72.253906 C 270.203125 72.410156 270.273438 72.617188 270.257812 72.828125 C 270.242188 73.039062 270.136719 73.234375 269.96875 73.363281 L 263.90625 78.078125 C 263.773438 78.179688 263.613281 78.234375 263.445312 78.234375 Z M 263.445312 78.234375 "/>
<path style=" stroke:none;fill-rule:nonzero;fill:rgb(40.392157%,31.372549%,64.313725%);fill-opacity:1;" d="M 235.433594 78.234375 C 235.753906 78.234375 236.042969 78.03125 236.148438 77.726562 C 236.25 77.421875 236.152344 77.082031 235.894531 76.882812 L 231.78125 73.6875 C 231.449219 73.425781 231.238281 73.039062 231.203125 72.617188 C 231.167969 72.195312 231.3125 71.777344 231.601562 71.464844 L 235.054688 67.726562 C 235.335938 67.421875 235.316406 66.941406 235.011719 66.660156 C 234.707031 66.375 234.226562 66.394531 233.945312 66.703125 L 228.816406 72.253906 C 228.671875 72.410156 228.601562 72.617188 228.617188 72.828125 C 228.636719 73.039062 228.742188 73.234375 228.90625 73.363281 L 234.96875 78.078125 C 235.101562 78.179688 235.265625 78.234375 235.433594 78.234375 Z M 235.433594 78.234375 "/>
<path style=" stroke:none;fill-rule:nonzero;fill:rgb(40.392157%,31.372549%,64.313725%);fill-opacity:1;" d="M 236.867188 75.871094 L 240.242188 68.144531 C 240.429688 67.722656 240.925781 67.527344 241.351562 67.714844 C 241.777344 67.902344 241.972656 68.394531 241.789062 68.820312 L 238.410156 76.546875 C 238.292969 76.824219 238.03125 77.019531 237.730469 77.050781 C 237.433594 77.085938 237.136719 76.957031 236.957031 76.714844 C 236.777344 76.46875 236.742188 76.148438 236.867188 75.871094 Z M 236.867188 75.871094 "/>
</g>
</svg>
